<svg width="400" height="400" viewBox="0 0 400 400" fill="none" xmlns="http://www.w3.org/2000/svg">
<rect width="400" height="400" rx="24" fill="#102E82"/>
<path d="M82.0062 250.746L4.07011 392.592C2.23925 395.924 4.65013 400 8.4522 400H392.58C396.127 400 398.546 396.41 397.214 393.123L356.13 291.693C355.057 289.043 351.984 287.831 349.391 289.035L332.694 296.782C330.162 297.957 327.159 296.832 326.023 294.283L295.15 225.045C293.995 222.454 290.917 221.342 288.373 222.597L261.912 235.639C259.661 236.749 256.936 236.017 255.543 233.93L201.387 152.792C199.314 149.686 194.69 149.867 192.866 153.126L129.245 266.798C127.873 269.251 124.749 270.091 122.332 268.657L88.9387 248.853C86.5082 247.412 83.367 248.27 82.0062 250.746Z" fill="white" fill-opacity="0.27"/>
<g style="mix-blend-mode:hard-light">
<path d="M58.8219 140H44.8476C43.6597 140 42.7843 139.75 42.2216 139.25C41.7214 138.687 41.4713 137.812 41.4713 136.624V75.8497C41.4713 74.6617 41.7214 73.8176 42.2216 73.3174C42.7843 72.7547 43.6597 72.4734 44.8476 72.4734H59.9473C60.9477 72.4734 61.7606 72.6922 62.3858 73.1299C63.0736 73.5675 63.6988 74.2866 64.2615 75.287L72.7024 90.5743C73.015 91.137 73.2651 91.5434 73.4527 91.7935C73.7028 92.0436 74.0154 92.1686 74.3905 92.1686H75.2346C75.6098 92.1686 75.8911 92.0436 76.0787 91.7935C76.3288 91.5434 76.6102 91.137 76.9228 90.5743L85.2698 75.287C85.8325 74.2866 86.4265 73.5675 87.0518 73.1299C87.7396 72.6922 88.5836 72.4734 89.584 72.4734H104.778C105.965 72.4734 106.81 72.7547 107.31 73.3174C107.872 73.8176 108.154 74.6617 108.154 75.8497V136.624C108.154 137.812 107.872 138.687 107.31 139.25C106.81 139.75 105.965 140 104.778 140H90.3343C89.1464 140 88.271 139.75 87.7083 139.25C87.2081 138.687 86.958 137.812 86.958 136.624V103.611L81.4246 113.833C80.8618 114.896 80.1741 115.678 79.3612 116.178C78.611 116.616 77.6418 116.835 76.4539 116.835H72.7024C71.5144 116.835 70.514 116.616 69.7012 116.178C68.9509 115.678 68.2944 114.896 67.7317 113.833L62.1982 103.611V136.624C62.1982 137.812 61.9169 138.687 61.3541 139.25C60.8539 139.75 60.0099 140 58.8219 140ZM142.164 140C140.976 140 140.101 139.75 139.538 139.25C139.038 138.687 138.788 137.812 138.788 136.624V125.463C138.788 124.275 139.038 123.431 139.538 122.931C140.101 122.368 140.976 122.087 142.164 122.087H151.449V90.5743H142.164C140.976 90.5743 140.101 90.3242 139.538 89.824C139.038 89.2612 138.788 88.3859 138.788 87.1979V75.8497C138.788 74.6617 139.038 73.8176 139.538 73.3174C140.101 72.7547 140.976 72.4734 142.164 72.4734H182.117C183.305 72.4734 184.149 72.7547 184.65 73.3174C185.212 73.8176 185.494 74.6617 185.494 75.8497V87.1979C185.494 88.3859 185.212 89.2612 184.65 89.824C184.149 90.3242 183.305 90.5743 182.117 90.5743H173.02V122.087H182.117C183.305 122.087 184.149 122.368 184.65 122.931C185.212 123.431 185.494 124.275 185.494 125.463V136.624C185.494 137.812 185.212 138.687 184.65 139.25C184.149 139.75 183.305 140 182.117 140H142.164ZM267.414 140H219.676C218.488 140 217.613 139.75 217.05 139.25C216.55 138.687 216.3 137.812 216.3 136.624V75.8497C216.3 74.6617 216.55 73.8176 217.05 73.3174C217.613 72.7547 218.488 72.4734 219.676 72.4734H234.213C235.401 72.4734 236.245 72.7547 236.745 73.3174C237.308 73.8176 237.589 74.6617 237.589 75.8497V122.274H250.438V107.081C250.438 105.893 250.688 105.049 251.189 104.549C251.751 103.986 252.627 103.704 253.815 103.704H267.414C268.602 103.704 269.446 103.986 269.946 104.549C270.509 105.049 270.79 105.893 270.79 107.081V136.624C270.79 137.812 270.509 138.687 269.946 139.25C269.446 139.75 268.602 140 267.414 140ZM347.631 140H304.114C302.926 140 302.05 139.75 301.488 139.25C300.987 138.687 300.737 137.812 300.737 136.624V75.8497C300.737 74.6617 300.987 73.8176 301.488 73.3174C302.05 72.7547 302.926 72.4734 304.114 72.4734H347.631C348.819 72.4734 349.663 72.7547 350.163 73.3174C350.726 73.8176 351.007 74.6617 351.007 75.8497V86.8228C351.007 88.0107 350.726 88.8861 350.163 89.4488C349.663 89.949 348.819 90.1991 347.631 90.1991H321.746V97.4207H340.034C341.222 97.4207 342.066 97.7021 342.566 98.2648C343.129 98.765 343.41 99.6091 343.41 100.797V110.832C343.41 112.02 343.129 112.896 342.566 113.458C342.066 113.958 341.222 114.209 340.034 114.209H321.746V122.274H347.631C348.819 122.274 349.663 122.556 350.163 123.118C350.726 123.619 351.007 124.463 351.007 125.651V136.624C351.007 137.812 350.726 138.687 350.163 139.25C349.663 139.75 348.819 140 347.631 140ZM59.3846 234H44.8476C43.6597 234 42.7843 233.75 42.2216 233.25C41.7214 232.687 41.4713 231.812 41.4713 230.624V169.85C41.4713 168.662 41.7214 167.818 42.2216 167.317C42.7843 166.755 43.6597 166.473 44.8476 166.473H59.3846C60.5726 166.473 61.4167 166.755 61.9169 167.317C62.4796 167.818 62.7609 168.662 62.7609 169.85V190.201H78.4234V169.85C78.4234 168.662 78.6735 167.818 79.1737 167.317C79.7364 166.755 80.6117 166.473 81.7997 166.473H96.3367C97.5247 166.473 98.3687 166.755 98.8689 167.317C99.4317 167.818 99.713 168.662 99.713 169.85V230.624C99.713 231.812 99.4317 232.687 98.8689 233.25C98.3687 233.75 97.5247 234 96.3367 234H81.7997C80.6117 234 79.7364 233.75 79.1737 233.25C78.6735 232.687 78.4234 231.812 78.4234 230.624V209.803H62.7609V230.624C62.7609 231.812 62.4796 232.687 61.9169 233.25C61.4167 233.75 60.5726 234 59.3846 234ZM135.145 234C133.957 234 133.081 233.75 132.519 233.25C132.018 232.687 131.768 231.812 131.768 230.624V219.463C131.768 218.275 132.018 217.431 132.519 216.931C133.081 216.368 133.957 216.087 135.145 216.087H144.43V184.574H135.145C133.957 184.574 133.081 184.324 132.519 183.824C132.018 183.261 131.768 182.386 131.768 181.198V169.85C131.768 168.662 132.018 167.818 132.519 167.317C133.081 166.755 133.957 166.473 135.145 166.473H175.098C176.286 166.473 177.13 166.755 177.63 167.317C178.193 167.818 178.474 168.662 178.474 169.85V181.198C178.474 182.386 178.193 183.261 177.63 183.824C177.13 184.324 176.286 184.574 175.098 184.574H166.001V216.087H175.098C176.286 216.087 177.13 216.368 177.63 216.931C178.193 217.431 178.474 218.275 178.474 219.463V230.624C178.474 231.812 178.193 232.687 177.63 233.25C177.13 233.75 176.286 234 175.098 234H135.145ZM262.27 234H232.727C224.912 234 219.097 232.437 215.283 229.311C211.531 226.184 209.656 221.37 209.656 214.867V185.606C209.656 179.103 211.531 174.289 215.283 171.163C219.097 168.036 224.912 166.473 232.727 166.473H256.174C257.362 166.473 258.206 166.755 258.706 167.317C259.269 167.818 259.55 168.662 259.55 169.85V181.198C259.55 182.386 259.269 183.261 258.706 183.824C258.206 184.324 257.362 184.574 256.174 184.574H236.666C234.728 184.574 233.29 184.981 232.352 185.793C231.414 186.544 230.945 187.7 230.945 189.264V211.679C230.945 213.242 231.289 214.399 231.977 215.149C232.727 215.899 233.821 216.274 235.259 216.274H244.357V201.643C244.357 200.456 244.607 199.611 245.107 199.111C245.67 198.549 246.545 198.267 247.733 198.267H262.27C263.458 198.267 264.302 198.549 264.802 199.111C265.365 199.611 265.646 200.456 265.646 201.643V230.624C265.646 231.812 265.365 232.687 264.802 233.25C264.302 233.75 263.458 234 262.27 234ZM315.636 234H301.099C299.911 234 299.035 233.75 298.473 233.25C297.972 232.687 297.722 231.812 297.722 230.624V169.85C297.722 168.662 297.972 167.818 298.473 167.317C299.035 166.755 299.911 166.473 301.099 166.473H315.636C316.824 166.473 317.668 166.755 318.168 167.317C318.731 167.818 319.012 168.662 319.012 169.85V190.201H334.674V169.85C334.674 168.662 334.924 167.818 335.425 167.317C335.987 166.755 336.863 166.473 338.051 166.473H352.588C353.776 166.473 354.62 166.755 355.12 167.317C355.683 167.818 355.964 168.662 355.964 169.85V230.624C355.964 231.812 355.683 232.687 355.12 233.25C354.62 233.75 353.776 234 352.588 234H338.051C336.863 234 335.987 233.75 335.425 233.25C334.924 232.687 334.674 231.812 334.674 230.624V209.803H319.012V230.624C319.012 231.812 318.731 232.687 318.168 233.25C317.668 233.75 316.824 234 315.636 234ZM59.3846 328H44.8476C43.6597 328 42.7843 327.75 42.2216 327.25C41.7214 326.687 41.4713 325.812 41.4713 324.624V263.85C41.4713 262.662 41.7214 261.818 42.2216 261.317C42.7843 260.755 43.6597 260.473 44.8476 260.473H59.3846C60.5726 260.473 61.4167 260.755 61.9169 261.317C62.4796 261.818 62.7609 262.662 62.7609 263.85V284.201H78.4234V263.85C78.4234 262.662 78.6735 261.818 79.1737 261.317C79.7364 260.755 80.6117 260.473 81.7997 260.473H96.3367C97.5247 260.473 98.3687 260.755 98.8689 261.317C99.4317 261.818 99.713 262.662 99.713 263.85V324.624C99.713 325.812 99.4317 326.687 98.8689 327.25C98.3687 327.75 97.5247 328 96.3367 328H81.7997C80.6117 328 79.7364 327.75 79.1737 327.25C78.6735 326.687 78.4234 325.812 78.4234 324.624V303.803H62.7609V324.624C62.7609 325.812 62.4796 326.687 61.9169 327.25C61.4167 327.75 60.5726 328 59.3846 328ZM137.114 280.169L132.706 294.424H147.431L143.023 280.169C142.773 279.606 142.491 279.2 142.179 278.949C141.929 278.699 141.616 278.574 141.241 278.574H138.896C138.521 278.574 138.177 278.699 137.865 278.949C137.614 279.2 137.364 279.606 137.114 280.169ZM131.768 324.624C131.768 325.812 131.487 326.687 130.924 327.25C130.424 327.75 129.58 328 128.392 328H114.605C113.417 328 112.542 327.75 111.979 327.25C111.479 326.687 111.229 325.812 111.229 324.624V299.864C111.229 297.988 111.51 295.831 112.073 293.393C112.698 290.954 113.636 288.109 114.887 284.858L123.046 263.568C123.421 262.505 123.984 261.724 124.734 261.224C125.547 260.723 126.579 260.473 127.829 260.473H153.058C154.246 260.473 155.215 260.723 155.965 261.224C156.778 261.724 157.372 262.505 157.747 263.568L165.907 284.858C167.157 288.109 168.064 290.954 168.627 293.393C169.252 295.831 169.565 297.988 169.565 299.864V324.624C169.565 325.812 169.283 326.687 168.72 327.25C168.22 327.75 167.376 328 166.188 328H152.026C150.776 328 149.838 327.75 149.213 327.25C148.65 326.687 148.369 325.812 148.369 324.624V311.493H131.768V324.624ZM226.068 328H203.184C195.369 328 189.554 326.437 185.74 323.311C181.988 320.184 180.113 315.37 180.113 308.867V279.7C180.113 273.197 181.988 268.383 185.74 265.257C189.554 262.068 195.369 260.473 203.184 260.473H226.068C227.256 260.473 228.1 260.755 228.601 261.317C229.163 261.818 229.445 262.662 229.445 263.85V275.198C229.445 276.386 229.163 277.261 228.601 277.824C228.1 278.324 227.256 278.574 226.068 278.574H207.217C205.279 278.574 203.841 278.981 202.903 279.793C201.965 280.544 201.496 281.7 201.496 283.264V305.585C201.496 307.148 201.965 308.305 202.903 309.055C203.841 309.743 205.279 310.087 207.217 310.087H226.068C227.256 310.087 228.1 310.368 228.601 310.931C229.163 311.431 229.445 312.275 229.445 313.463V324.624C229.445 325.812 229.163 326.687 228.601 327.25C228.1 327.75 227.256 328 226.068 328ZM257.949 328H243.412C242.224 328 241.349 327.75 240.786 327.25C240.286 326.687 240.036 325.812 240.036 324.624V263.85C240.036 262.662 240.286 261.818 240.786 261.317C241.349 260.755 242.224 260.473 243.412 260.473H257.949C259.137 260.473 259.981 260.755 260.482 261.317C261.044 261.818 261.326 262.662 261.326 263.85V285.421H265.077L274.737 263.568C275.175 262.443 275.769 261.661 276.519 261.224C277.269 260.723 278.239 260.473 279.426 260.473H293.87C294.933 260.473 295.652 260.755 296.027 261.317C296.402 261.818 296.371 262.568 295.933 263.568L286.367 285.421C289.868 285.608 292.65 286.859 294.714 289.172C296.84 291.423 297.903 294.424 297.903 298.176V324.624C297.903 325.812 297.621 326.687 297.058 327.25C296.558 327.75 295.714 328 294.526 328H280.083C278.895 328 278.02 327.75 277.457 327.25C276.957 326.687 276.707 325.812 276.707 324.624V306.335C276.707 305.335 276.457 304.553 275.956 303.991C275.456 303.428 274.706 303.146 273.705 303.146H261.326V324.624C261.326 325.812 261.044 326.687 260.482 327.25C259.981 327.75 259.137 328 257.949 328ZM341.335 328H311.698C310.51 328 309.635 327.75 309.072 327.25C308.572 326.687 308.322 325.812 308.322 324.624V313.651C308.322 312.463 308.572 311.619 309.072 311.118C309.635 310.556 310.51 310.274 311.698 310.274H336.927C337.74 310.274 338.333 310.024 338.709 309.524C339.146 308.961 339.365 308.305 339.365 307.554C339.365 306.492 339.146 305.71 338.709 305.21C338.333 304.71 337.74 304.428 336.927 304.366L322.859 302.396C318.482 301.771 314.949 300.333 312.261 298.082C309.635 295.831 308.322 292.08 308.322 286.828V276.98C308.322 271.665 310.041 267.601 313.48 264.788C316.919 261.911 321.671 260.473 327.736 260.473H353.996C355.184 260.473 356.028 260.755 356.528 261.317C357.091 261.818 357.372 262.662 357.372 263.85V275.01C357.372 276.198 357.091 277.074 356.528 277.636C356.028 278.137 355.184 278.387 353.996 278.387H332.144C331.331 278.387 330.705 278.668 330.268 279.231C329.83 279.731 329.611 280.387 329.611 281.2C329.611 282.013 329.83 282.701 330.268 283.264C330.705 283.826 331.331 284.139 332.144 284.201L346.118 286.077C350.495 286.702 354.027 288.141 356.716 290.391C359.404 292.642 360.749 296.394 360.749 301.646V311.493C360.749 316.808 358.998 320.903 355.497 323.78C352.058 326.593 347.337 328 341.335 328Z" fill="#F6D047"/>
</g>
</svg>
