<svg width="564" height="73" viewBox="0 0 564 73" fill="none" xmlns="http://www.w3.org/2000/svg">
<g filter="url(#filter0_b_9_24)">
<path d="M0.9 59L4.1 9H19.62L28.34 40.6H28.9L37.62 9H53.06L56.26 59H44.42L42.5 27H42.02L33.3 59H23.94L15.22 27H14.74L12.74 59H0.9ZM66.3188 20.28L78.2388 18.68V59H66.3188V20.28ZM72.3188 13.8C69.7588 13.8 67.9988 13.3467 67.0388 12.44C66.1321 11.5333 65.6788 9.8 65.6788 7.24C65.6788 4.62666 66.1321 2.86666 67.0388 1.96C67.9988 0.999998 69.7854 0.52 72.3988 0.52C74.9054 0.52 76.6121 0.999998 77.5188 1.96C78.4788 2.86666 78.9588 4.62666 78.9588 7.24C78.9588 9.8 78.5054 11.5333 77.5988 12.44C76.6921 13.3467 74.9321 13.8 72.3188 13.8ZM101.282 50.36C101.922 50.4667 102.562 50.5733 103.202 50.68C103.842 50.7333 104.455 50.7867 105.042 50.84L104.482 58.92C103.149 59.24 101.895 59.48 100.722 59.64C99.6019 59.8533 98.5085 59.96 97.4419 59.96C94.7219 59.96 92.6952 59.3733 91.3619 58.2C90.0285 57.0267 89.3619 55.1867 89.3619 52.68V7L101.282 5.8V50.36ZM129.045 59.96C125.738 59.96 122.912 59.6133 120.565 58.92C118.218 58.1733 116.325 56.9733 114.885 55.32C113.445 53.6667 112.378 51.5067 111.685 48.84C111.045 46.1733 110.725 42.8933 110.725 39C110.725 33.88 111.365 29.8 112.645 26.76C113.925 23.6667 115.952 21.4533 118.725 20.12C121.498 18.7333 125.178 18.04 129.765 18.04C134.245 18.04 137.738 18.4133 140.245 19.16C142.752 19.9067 144.512 21.2133 145.525 23.08C146.592 24.8933 147.125 27.4533 147.125 30.76C147.125 33.3733 146.778 35.5333 146.085 37.24C145.392 38.8933 144.165 40.2 142.405 41.16C140.698 42.12 138.298 42.7867 135.205 43.16C132.165 43.5333 128.245 43.72 123.445 43.72H121.045V37.16H130.245C132.592 37.16 134.192 36.8933 135.045 36.36C135.952 35.7733 136.405 34.7067 136.405 33.16V27H129.525C127.232 27 125.632 27.2667 124.725 27.8C123.872 28.3333 123.445 29.3733 123.445 30.92V50.44C124.352 50.6533 125.365 50.8133 126.485 50.92C127.605 51.0267 128.965 51.08 130.565 51.08C132.805 51.08 135.018 50.92 137.205 50.6C139.445 50.28 141.925 49.7733 144.645 49.08L146.085 57.4C143.738 58.2533 141.098 58.8933 138.165 59.32C135.232 59.7467 132.192 59.96 129.045 59.96ZM187.067 59H175.147V9H187.067V59ZM203.627 9H215.467V59H203.627V9ZM204.907 38.6H185.787V29.64H204.907V38.6ZM226.709 20.28L238.629 18.68V59H226.709V20.28ZM232.709 13.8C230.149 13.8 228.389 13.3467 227.429 12.44C226.523 11.5333 226.069 9.8 226.069 7.24C226.069 4.62666 226.523 2.86666 227.429 1.96C228.389 0.999998 230.176 0.52 232.789 0.52C235.296 0.52 237.003 0.999998 237.909 1.96C238.869 2.86666 239.349 4.62666 239.349 7.24C239.349 9.8 238.896 11.5333 237.989 12.44C237.083 13.3467 235.323 13.8 232.709 13.8ZM264.473 47.4C260.313 47.4 256.953 46.92 254.393 45.96C251.833 45 249.966 43.4533 248.793 41.32C247.673 39.1333 247.113 36.2267 247.113 32.6C247.113 29.0267 247.673 26.1733 248.793 24.04C249.966 21.8533 251.833 20.28 254.393 19.32C256.953 18.3067 260.313 17.8 264.473 17.8C268.686 17.8 272.073 18.3067 274.633 19.32C277.193 20.28 279.033 21.8533 280.153 24.04C281.326 26.1733 281.913 29.0267 281.913 32.6C281.913 36.2267 281.326 39.1333 280.153 41.32C279.033 43.4533 277.193 45 274.633 45.96C272.073 46.92 268.686 47.4 264.473 47.4ZM258.633 40.76H266.073C267.726 40.76 268.846 40.4933 269.433 39.96C270.073 39.3733 270.393 38.3867 270.393 37V24.52H262.873C261.273 24.52 260.153 24.7867 259.513 25.32C258.926 25.8533 258.633 26.84 258.633 28.28V40.76ZM282.393 61.4C282.393 64.0133 281.806 66.1467 280.633 67.8C279.459 69.4533 277.619 70.6533 275.113 71.4C272.659 72.2 269.379 72.6 265.273 72.6C262.179 72.6 259.139 72.36 256.153 71.88C253.166 71.4533 250.393 70.84 247.833 70.04L249.353 61.56C251.913 62.2533 254.259 62.76 256.393 63.08C258.579 63.4 260.766 63.56 262.953 63.56C264.713 63.56 266.259 63.5067 267.593 63.4C268.979 63.2933 270.339 63.1067 271.673 62.84V58.44C266.446 58.0667 262.713 57.6133 260.473 57.08C258.286 56.4933 257.193 55.72 257.193 54.76L259.833 45.72L267.513 45.8L267.113 51.24C270.206 51.6667 272.739 52.12 274.713 52.6C276.739 53.08 278.286 53.6933 279.353 54.44C280.473 55.1867 281.246 56.12 281.673 57.24C282.153 58.36 282.393 59.7467 282.393 61.4ZM278.473 27.88L272.073 19.56L279.433 13.88L285.193 19.48L278.473 27.88ZM292.1 59V6.68L303.78 5.8V21.08C305.487 20.0133 307.38 19.24 309.46 18.76C311.54 18.28 313.86 18.04 316.42 18.04C320.153 18.04 323.033 18.7333 325.06 20.12C327.087 21.4533 328.1 23.4 328.1 25.96V59H316.18V27.8H310.26C307.86 27.8 306.207 28.0933 305.3 28.68C304.447 29.2133 304.02 30.2533 304.02 31.8V59H292.1ZM368.864 59H356.944V9H368.864V59ZM385.424 9H397.264V59H385.424V9ZM386.704 38.6H367.584V29.64H386.704V38.6ZM419.226 59.96C414.64 59.96 411.306 58.9733 409.226 57C407.146 54.9733 406.106 51.72 406.106 47.24C406.106 44.6267 406.426 42.4933 407.066 40.84C407.76 39.1333 408.906 37.8 410.506 36.84C412.106 35.88 414.346 35.2133 417.226 34.84C420.16 34.4667 423.866 34.28 428.346 34.28H432.506V40.84H423.066C420.773 40.84 419.2 41.1333 418.346 41.72C417.493 42.2533 417.066 43.2933 417.066 44.84V51.56H424.186C426.48 51.56 428.026 51.2933 428.826 50.76C429.68 50.2267 430.106 49.2133 430.106 47.72V27.56C428.72 27.1333 426.693 26.92 424.026 26.92C421.786 26.92 419.44 27.08 416.986 27.4C414.586 27.72 412.053 28.2267 409.386 28.92L407.946 20.6C409.6 20.0133 411.386 19.5333 413.306 19.16C415.28 18.7867 417.306 18.52 419.386 18.36C421.466 18.1467 423.52 18.04 425.546 18.04C429.493 18.04 432.666 18.4667 435.066 19.32C437.52 20.12 439.28 21.4533 440.346 23.32C441.466 25.1333 442.026 27.56 442.026 30.6V59H436.266L433.226 55C431.253 56.6533 429.093 57.9067 426.746 58.76C424.453 59.56 421.946 59.96 419.226 59.96ZM467.201 59.96C464.161 59.96 461.601 59.6133 459.521 58.92C457.495 58.2267 455.841 57.0533 454.561 55.4C453.281 53.7467 452.348 51.5867 451.761 48.92C451.175 46.2533 450.881 42.9467 450.881 39C450.881 35.0533 451.175 31.7467 451.761 29.08C452.348 26.36 453.281 24.2 454.561 22.6C455.841 20.9467 457.495 19.7733 459.521 19.08C461.601 18.3867 464.161 18.04 467.201 18.04C468.695 18.04 470.268 18.12 471.921 18.28C473.628 18.3867 475.228 18.5467 476.721 18.76C478.268 18.9733 479.521 19.24 480.481 19.56L479.361 28.04C477.815 27.6667 476.241 27.4 474.641 27.24C473.095 27.0267 471.468 26.92 469.761 26.92C467.468 26.92 465.868 27.4 464.961 28.36C464.055 29.2667 463.601 30.8933 463.601 33.24V50.44C464.988 50.8667 467.041 51.08 469.761 51.08C471.521 51.08 473.228 50.92 474.881 50.6C476.535 50.28 478.321 49.7733 480.241 49.08L481.361 57.4C479.335 58.2533 477.095 58.8933 474.641 59.32C472.241 59.7467 469.761 59.96 467.201 59.96ZM505.455 41.4H500.895V59H488.975V7L500.895 5.8V33.88H505.375L512.575 19H525.135L515.375 37.8L525.535 59H513.135L505.455 41.4ZM529.629 30.52C529.629 26.1467 530.963 22.9467 533.629 20.92C536.296 18.84 540.456 17.8 546.109 17.8C548.829 17.8 551.443 17.96 553.949 18.28C556.509 18.5467 558.963 18.9733 561.309 19.56L559.869 27.96C558.536 27.5867 557.043 27.2933 555.389 27.08C553.736 26.8667 552.029 26.76 550.269 26.76C548.829 26.76 547.389 26.84 545.949 27C544.563 27.1067 543.363 27.2933 542.349 27.56V33.8C546.509 34.28 549.949 34.8667 552.669 35.56C555.389 36.2 557.523 37.0267 559.069 38.04C560.616 39.0533 561.709 40.3067 562.349 41.8C562.989 43.24 563.309 45.0267 563.309 47.16C563.309 50.2 562.696 52.7067 561.469 54.68C560.243 56.6 558.269 58.0133 555.549 58.92C552.829 59.7733 549.283 60.2 544.909 60.2C542.189 60.2 539.443 59.9867 536.669 59.56C533.949 59.1333 531.363 58.52 528.909 57.72L530.589 48.76C534.536 50.4133 538.856 51.24 543.549 51.24C544.669 51.24 545.763 51.1867 546.829 51.08C547.949 50.92 549.229 50.68 550.669 50.36V43.96C546.243 43.4267 542.643 42.8667 539.869 42.28C537.149 41.64 535.043 40.84 533.549 39.88C532.056 38.8667 531.016 37.6133 530.429 36.12C529.896 34.6267 529.629 32.76 529.629 30.52Z" fill="white" fill-opacity="0.02"/>
<path d="M0.9 59L-1.09592 58.8723L-1.23209 61H0.9V59ZM4.1 9V7H2.22391L2.10408 8.87226L4.1 9ZM19.62 9L21.5479 8.46799L21.1429 7H19.62V9ZM28.34 40.6L26.4121 41.132L26.8172 42.6H28.34V40.6ZM28.9 40.6V42.6H30.4229L30.8279 41.132L28.9 40.6ZM37.62 9V7H36.0971L35.6921 8.46799L37.62 9ZM53.06 9L55.0559 8.87226L54.9361 7H53.06V9ZM56.26 59V61H58.3921L58.2559 58.8723L56.26 59ZM44.42 59L42.4236 59.1198L42.5364 61H44.42V59ZM42.5 27L44.4964 26.8802L44.3836 25H42.5V27ZM42.02 27V25H40.4921L40.0904 26.4742L42.02 27ZM33.3 59V61H34.8279L35.2296 59.5258L33.3 59ZM23.94 59L22.0104 59.5258L22.4121 61H23.94V59ZM15.22 27L17.1496 26.4742L16.7479 25H15.22V27ZM14.74 27V25H12.8611L12.7439 26.8752L14.74 27ZM12.74 59V61H14.6189L14.7361 59.1248L12.74 59ZM2.89592 59.1277L6.09592 9.12774L2.10408 8.87226L-1.09592 58.8723L2.89592 59.1277ZM4.1 11H19.62V7H4.1V11ZM17.6921 9.53201L26.4121 41.132L30.2679 40.068L21.5479 8.46799L17.6921 9.53201ZM28.34 42.6H28.9V38.6H28.34V42.6ZM30.8279 41.132L39.5479 9.53201L35.6921 8.46799L26.9721 40.068L30.8279 41.132ZM37.62 11H53.06V7H37.62V11ZM51.0641 9.12774L54.2641 59.1277L58.2559 58.8723L55.0559 8.87226L51.0641 9.12774ZM56.26 57H44.42V61H56.26V57ZM46.4164 58.8802L44.4964 26.8802L40.5036 27.1198L42.4236 59.1198L46.4164 58.8802ZM42.5 25H42.02V29H42.5V25ZM40.0904 26.4742L31.3704 58.4742L35.2296 59.5258L43.9496 27.5258L40.0904 26.4742ZM33.3 57H23.94V61H33.3V57ZM25.8696 58.4742L17.1496 26.4742L13.2904 27.5258L22.0104 59.5258L25.8696 58.4742ZM15.22 25H14.74V29H15.22V25ZM12.7439 26.8752L10.7439 58.8752L14.7361 59.1248L16.7361 27.1248L12.7439 26.8752ZM12.74 57H0.9V61H12.74V57ZM66.3188 20.28L66.0527 18.2978L64.3188 18.5305V20.28H66.3188ZM78.2388 18.68H80.2388V16.3936L77.9727 16.6978L78.2388 18.68ZM78.2388 59V61H80.2388V59H78.2388ZM66.3188 59H64.3188V61H66.3188V59ZM67.0388 12.44L65.6245 13.8542L65.6447 13.8744L65.6655 13.894L67.0388 12.44ZM67.0388 1.96L65.6245 0.54578L65.6245 0.545782L67.0388 1.96ZM77.5188 1.96L76.0647 3.33324L76.104 3.37479L76.1455 3.41402L77.5188 1.96ZM66.5848 22.2622L78.5048 20.6622L77.9727 16.6978L66.0527 18.2978L66.5848 22.2622ZM76.2388 18.68V59H80.2388V18.68H76.2388ZM78.2388 57H66.3188V61H78.2388V57ZM68.3188 59V20.28H64.3188V59H68.3188ZM72.3188 11.8C69.8504 11.8 68.7797 11.3333 68.412 10.986L65.6655 13.894C67.2178 15.3601 69.6671 15.8 72.3188 15.8V11.8ZM68.453 11.0258C68.1538 10.7266 67.6788 9.72864 67.6788 7.24H63.6788C63.6788 9.87136 64.1104 12.34 65.6245 13.8542L68.453 11.0258ZM67.6788 7.24C67.6788 4.68383 68.1588 3.6684 68.453 3.37421L65.6245 0.545782C64.1054 2.06492 63.6788 4.5695 63.6788 7.24H67.6788ZM68.453 3.37421C68.8146 3.01262 69.882 2.52 72.3988 2.52V-1.48C69.6889 -1.48 67.1829 -1.01262 65.6245 0.54578L68.453 3.37421ZM72.3988 2.52C74.799 2.52 75.7592 3.00972 76.0647 3.33324L78.9728 0.586746C77.465 -1.00972 75.0118 -1.48 72.3988 -1.48V2.52ZM76.1455 3.41402C76.4578 3.70893 76.9588 4.70301 76.9588 7.24H80.9588C80.9588 4.55031 80.4997 2.0244 78.892 0.505969L76.1455 3.41402ZM76.9588 7.24C76.9588 9.72864 76.4837 10.7266 76.1845 11.0258L79.013 13.8542C80.5271 12.34 80.9588 9.87136 80.9588 7.24H76.9588ZM76.1845 11.0258C75.8903 11.32 74.8749 11.8 72.3188 11.8V15.8C74.9893 15.8 77.4938 15.3734 79.013 13.8542L76.1845 11.0258ZM101.282 50.36H99.2819V52.0543L100.953 52.3328L101.282 50.36ZM103.202 50.68L102.873 52.6528L102.954 52.6663L103.036 52.6731L103.202 50.68ZM105.042 50.84L107.037 50.9783L107.172 49.0254L105.223 48.8482L105.042 50.84ZM104.482 58.92L104.949 60.8648L106.376 60.5223L106.477 59.0583L104.482 58.92ZM100.722 59.64L100.452 57.6583L100.399 57.6655L100.348 57.6753L100.722 59.64ZM91.3619 58.2L90.0406 59.7014L90.0406 59.7014L91.3619 58.2ZM89.3619 7L89.1615 5.01006L87.3619 5.19123V7H89.3619ZM101.282 5.8H103.282V3.58855L101.082 3.81006L101.282 5.8ZM100.953 52.3328C101.593 52.4395 102.233 52.5461 102.873 52.6528L103.531 48.7072C102.891 48.6005 102.251 48.4939 101.611 48.3872L100.953 52.3328ZM103.036 52.6731C103.671 52.726 104.28 52.7789 104.861 52.8318L105.223 48.8482C104.631 48.7944 104.013 48.7406 103.368 48.6869L103.036 52.6731ZM103.047 50.7017L102.487 58.7817L106.477 59.0583L107.037 50.9783L103.047 50.7017ZM104.015 56.9752C102.737 57.282 101.55 57.5086 100.452 57.6583L100.992 61.6217C102.241 61.4514 103.56 61.198 104.949 60.8648L104.015 56.9752ZM100.348 57.6753C99.3426 57.8668 98.3747 57.96 97.4419 57.96V61.96C98.6424 61.96 99.8612 61.8399 101.096 61.6047L100.348 57.6753ZM97.4419 57.96C94.9596 57.96 93.5001 57.4175 92.6831 56.6986L90.0406 59.7014C91.8904 61.3292 94.4842 61.96 97.4419 61.96V57.96ZM92.6831 56.6986C91.9358 56.0409 91.3619 54.8561 91.3619 52.68H87.3619C87.3619 55.5172 88.1213 58.0124 90.0406 59.7014L92.6831 56.6986ZM91.3619 52.68V7H87.3619V52.68H91.3619ZM89.5622 8.98994L101.482 7.78994L101.082 3.81006L89.1615 5.01006L89.5622 8.98994ZM99.2819 5.8V50.36H103.282V5.8H99.2819ZM120.565 58.92L119.959 60.8259L119.978 60.8321L119.998 60.838L120.565 58.92ZM111.685 48.84L109.74 49.3067L109.745 49.325L109.749 49.3433L111.685 48.84ZM112.645 26.76L114.488 27.5361L114.493 27.5247L112.645 26.76ZM118.725 20.12L119.592 21.9225L119.606 21.9158L119.619 21.9089L118.725 20.12ZM140.245 19.16L140.816 17.2432L140.816 17.2432L140.245 19.16ZM145.525 23.08L143.767 24.0342L143.784 24.0644L143.801 24.094L145.525 23.08ZM146.085 37.24L147.929 38.0135L147.934 38.0031L147.938 37.9928L146.085 37.24ZM142.405 41.16L141.447 39.4042L141.436 39.4105L141.424 39.4168L142.405 41.16ZM135.205 43.16L134.965 41.1744L134.961 41.1749L135.205 43.16ZM121.045 43.72H119.045V45.72H121.045V43.72ZM121.045 37.16V35.16H119.045V37.16H121.045ZM135.045 36.36L136.105 38.056L136.118 38.0477L136.132 38.0391L135.045 36.36ZM136.405 27H138.405V25H136.405V27ZM124.725 27.8L123.711 26.0761L123.688 26.0898L123.665 26.104L124.725 27.8ZM123.445 50.44H121.445V52.024L122.987 52.3868L123.445 50.44ZM126.485 50.92L126.295 52.911L126.295 52.911L126.485 50.92ZM137.205 50.6L136.922 48.6201L136.915 48.6211L137.205 50.6ZM144.645 49.08L146.616 48.7389L146.247 46.6077L144.151 47.142L144.645 49.08ZM146.085 57.4L146.768 59.2796L148.341 58.7077L148.056 57.0589L146.085 57.4ZM138.165 59.32L138.453 61.2992L138.165 59.32ZM129.045 57.96C125.868 57.96 123.243 57.6257 121.132 57.002L119.998 60.838C122.581 61.601 125.609 61.96 129.045 61.96V57.96ZM121.171 57.0141C119.13 56.3645 117.564 55.3505 116.393 54.0064L113.377 56.6336C115.086 58.5961 117.307 59.9821 119.959 60.8259L121.171 57.0141ZM116.393 54.0064C115.202 52.6386 114.256 50.7788 113.621 48.3367L109.749 49.3433C110.501 52.2345 111.688 54.6947 113.377 56.6336L116.393 54.0064ZM113.63 48.3733C113.038 45.9084 112.725 42.796 112.725 39H108.725C108.725 42.9907 109.052 46.4383 109.74 49.3067L113.63 48.3733ZM112.725 39C112.725 34.015 113.353 30.2328 114.488 27.5361L110.802 25.9839C109.377 29.3672 108.725 33.745 108.725 39H112.725ZM114.493 27.5247C115.603 24.843 117.303 23.023 119.592 21.9225L117.858 18.3175C114.601 19.8837 112.247 22.4904 110.797 25.9953L114.493 27.5247ZM119.619 21.9089C122.014 20.7115 125.352 20.04 129.765 20.04V16.04C125.005 16.04 120.983 16.7552 117.831 18.3311L119.619 21.9089ZM129.765 20.04C134.168 20.04 137.439 20.4109 139.674 21.0768L140.816 17.2432C138.038 16.4158 134.322 16.04 129.765 16.04V20.04ZM139.674 21.0768C141.798 21.7094 143.062 22.7358 143.767 24.0342L147.283 22.1258C145.961 19.6909 143.705 18.1039 140.816 17.2432L139.674 21.0768ZM143.801 24.094C144.612 25.4721 145.125 27.6244 145.125 30.76H149.125C149.125 27.2823 148.572 24.3146 147.249 22.066L143.801 24.094ZM145.125 30.76C145.125 33.2151 144.797 35.0974 144.232 36.4872L147.938 37.9928C148.76 35.9693 149.125 33.5316 149.125 30.76H145.125ZM144.241 36.4665C143.744 37.6517 142.859 38.6343 141.447 39.4042L143.363 42.9158C145.471 41.7657 147.04 40.1349 147.929 38.0135L144.241 36.4665ZM141.424 39.4168C140.042 40.1947 137.934 40.8161 134.965 41.1744L135.445 45.1456C138.662 44.7573 141.355 44.0453 143.386 42.9032L141.424 39.4168ZM134.961 41.1749C132.034 41.5344 128.204 41.72 123.445 41.72V45.72C128.286 45.72 132.296 45.5323 135.449 45.1451L134.961 41.1749ZM123.445 41.72H121.045V45.72H123.445V41.72ZM123.045 43.72V37.16H119.045V43.72H123.045ZM121.045 39.16H130.245V35.16H121.045V39.16ZM130.245 39.16C131.484 39.16 132.589 39.0903 133.534 38.9328C134.454 38.7795 135.36 38.5215 136.105 38.056L133.985 34.664C133.876 34.7319 133.556 34.8738 132.876 34.9872C132.221 35.0964 131.352 35.16 130.245 35.16V39.16ZM136.132 38.0391C137.831 36.9393 138.405 35.0671 138.405 33.16H134.405C134.405 34.3463 134.072 34.6074 133.959 34.6809L136.132 38.0391ZM138.405 33.16V27H134.405V33.16H138.405ZM136.405 25H129.525V29H136.405V25ZM129.525 25C127.204 25 125.12 25.2472 123.711 26.0761L125.739 29.5239C126.143 29.2861 127.259 29 129.525 29V25ZM123.665 26.104C121.957 27.1712 121.445 29.0765 121.445 30.92H125.445C125.445 30.3156 125.53 29.946 125.615 29.7391C125.689 29.559 125.754 29.5151 125.785 29.496L123.665 26.104ZM121.445 30.92V50.44H125.445V30.92H121.445ZM122.987 52.3868C123.998 52.6247 125.103 52.7974 126.295 52.911L126.675 48.929C125.627 48.8292 124.705 48.682 123.903 48.4932L122.987 52.3868ZM126.295 52.911C127.498 53.0256 128.926 53.08 130.565 53.08V49.08C129.004 49.08 127.712 49.0278 126.675 48.929L126.295 52.911ZM130.565 53.08C132.901 53.08 135.211 52.9131 137.495 52.5789L136.915 48.6211C134.826 48.9269 132.709 49.08 130.565 49.08V53.08ZM137.488 52.5799C139.813 52.2477 142.365 51.7251 145.139 51.018L144.151 47.142C141.485 47.8216 139.077 48.3123 136.922 48.6201L137.488 52.5799ZM142.674 49.4211L144.114 57.7411L148.056 57.0589L146.616 48.7389L142.674 49.4211ZM145.402 55.5204C143.204 56.3195 140.7 56.9303 137.877 57.3408L138.453 61.2992C141.497 60.8564 144.273 60.1872 146.768 59.2796L145.402 55.5204ZM137.877 57.3408C135.045 57.7528 132.101 57.96 129.045 57.96V61.96C132.282 61.96 135.419 61.7405 138.453 61.2992L137.877 57.3408ZM187.067 59V61H189.067V59H187.067ZM175.147 59H173.147V61H175.147V59ZM175.147 9V7H173.147V9H175.147ZM187.067 9H189.067V7H187.067V9ZM203.627 9V7H201.627V9H203.627ZM215.467 9H217.467V7H215.467V9ZM215.467 59V61H217.467V59H215.467ZM203.627 59H201.627V61H203.627V59ZM204.907 38.6V40.6H206.907V38.6H204.907ZM185.787 38.6H183.787V40.6H185.787V38.6ZM185.787 29.64V27.64H183.787V29.64H185.787ZM204.907 29.64H206.907V27.64H204.907V29.64ZM187.067 57H175.147V61H187.067V57ZM177.147 59V9H173.147V59H177.147ZM175.147 11H187.067V7H175.147V11ZM185.067 9V59H189.067V9H185.067ZM203.627 11H215.467V7H203.627V11ZM213.467 9V59H217.467V9H213.467ZM215.467 57H203.627V61H215.467V57ZM205.627 59V9H201.627V59H205.627ZM204.907 36.6H185.787V40.6H204.907V36.6ZM187.787 38.6V29.64H183.787V38.6H187.787ZM185.787 31.64H204.907V27.64H185.787V31.64ZM202.907 29.64V38.6H206.907V29.64H202.907ZM226.709 20.28L226.443 18.2978L224.709 18.5305V20.28H226.709ZM238.629 18.68H240.629V16.3936L238.363 16.6978L238.629 18.68ZM238.629 59V61H240.629V59H238.629ZM226.709 59H224.709V61H226.709V59ZM227.429 12.44L226.015 13.8542L226.035 13.8744L226.056 13.894L227.429 12.44ZM227.429 1.96L226.015 0.54578L226.015 0.545782L227.429 1.96ZM237.909 1.96L236.455 3.33324L236.495 3.37479L236.536 3.41402L237.909 1.96ZM226.975 22.2622L238.895 20.6622L238.363 16.6978L226.443 18.2978L226.975 22.2622ZM236.629 18.68V59H240.629V18.68H236.629ZM238.629 57H226.709V61H238.629V57ZM228.709 59V20.28H224.709V59H228.709ZM232.709 11.8C230.241 11.8 229.17 11.3333 228.803 10.986L226.056 13.894C227.608 15.3601 230.058 15.8 232.709 15.8V11.8ZM228.844 11.0258C228.544 10.7266 228.069 9.72864 228.069 7.24H224.069C224.069 9.87136 224.501 12.34 226.015 13.8542L228.844 11.0258ZM228.069 7.24C228.069 4.68383 228.549 3.6684 228.844 3.37421L226.015 0.545782C224.496 2.06492 224.069 4.5695 224.069 7.24H228.069ZM228.844 3.37421C229.205 3.01262 230.273 2.52 232.789 2.52V-1.48C230.079 -1.48 227.574 -1.01262 226.015 0.54578L228.844 3.37421ZM232.789 2.52C235.19 2.52 236.15 3.00972 236.455 3.33324L239.363 0.586746C237.856 -1.00972 235.402 -1.48 232.789 -1.48V2.52ZM236.536 3.41402C236.848 3.70893 237.349 4.70301 237.349 7.24H241.349C241.349 4.55031 240.89 2.0244 239.283 0.505969L236.536 3.41402ZM237.349 7.24C237.349 9.72864 236.874 10.7266 236.575 11.0258L239.404 13.8542C240.918 12.34 241.349 9.87136 241.349 7.24H237.349ZM236.575 11.0258C236.281 11.32 235.266 11.8 232.709 11.8V15.8C235.38 15.8 237.884 15.3734 239.404 13.8542L236.575 11.0258ZM254.393 45.96L253.69 47.8327L253.69 47.8327L254.393 45.96ZM248.793 41.32L247.012 42.2318L247.026 42.258L247.04 42.2838L248.793 41.32ZM248.793 24.04L247.03 23.0944L247.026 23.1023L247.022 23.1103L248.793 24.04ZM254.393 19.32L255.095 21.1927L255.112 21.1863L255.129 21.1796L254.393 19.32ZM274.633 19.32L273.896 21.1796L273.913 21.1863L273.93 21.1927L274.633 19.32ZM280.153 24.04L278.372 24.9518L278.386 24.978L278.4 25.0038L280.153 24.04ZM280.153 41.32L278.39 40.3744L278.386 40.3823L278.382 40.3903L280.153 41.32ZM274.633 45.96L275.335 47.8327L275.335 47.8327L274.633 45.96ZM258.633 40.76H256.633V42.76H258.633V40.76ZM269.433 39.96L270.778 41.4399L270.784 41.4343L269.433 39.96ZM270.393 24.52H272.393V22.52H270.393V24.52ZM259.513 25.32L258.232 23.7836L258.199 23.8111L258.167 23.8401L259.513 25.32ZM280.633 67.8L282.264 68.9575L282.264 68.9575L280.633 67.8ZM275.113 71.4L274.542 69.4832L274.517 69.4906L274.492 69.4985L275.113 71.4ZM256.153 71.88L256.47 69.9053L256.453 69.9026L256.435 69.9001L256.153 71.88ZM247.833 70.04L245.864 69.6871L245.553 71.423L247.236 71.949L247.833 70.04ZM249.353 61.56L249.875 59.6295L247.769 59.0591L247.384 61.2071L249.353 61.56ZM256.393 63.08L256.096 65.0579L256.103 65.0589L256.393 63.08ZM267.593 63.4L267.439 61.4059L267.433 61.4064L267.593 63.4ZM271.673 62.84L272.065 64.8012L273.673 64.4796V62.84H271.673ZM271.673 58.44H273.673V56.5778L271.815 56.4451L271.673 58.44ZM260.473 57.08L259.954 59.0117L259.982 59.019L260.009 59.0256L260.473 57.08ZM257.193 54.76L255.273 54.1993L255.193 54.4739V54.76H257.193ZM259.833 45.72L259.853 43.7201L258.338 43.7043L257.913 45.1593L259.833 45.72ZM267.513 45.8L269.507 45.9467L269.663 43.8223L267.533 43.8001L267.513 45.8ZM267.113 51.24L265.118 51.0933L264.98 52.9648L266.839 53.2212L267.113 51.24ZM274.713 52.6L274.24 54.5434L274.252 54.5462L274.713 52.6ZM279.353 54.44L278.206 56.0785L278.224 56.0915L278.243 56.1041L279.353 54.44ZM281.673 57.24L279.804 57.952L279.818 57.9902L279.834 58.0278L281.673 57.24ZM278.473 27.88L276.887 29.0994L278.442 31.1201L280.034 29.1294L278.473 27.88ZM272.073 19.56L270.851 17.9767L269.27 19.1967L270.487 20.7794L272.073 19.56ZM279.433 13.88L280.827 12.446L279.583 11.2372L278.211 12.2967L279.433 13.88ZM285.193 19.48L286.754 20.7294L287.888 19.3116L286.587 18.046L285.193 19.48ZM264.473 45.4C260.44 45.4 257.345 44.9312 255.095 44.0873L253.69 47.8327C256.56 48.9088 260.185 49.4 264.473 49.4V45.4ZM255.095 44.0873C252.923 43.2731 251.459 42.019 250.545 40.3562L247.04 42.2838C248.472 44.8877 250.742 46.7269 253.69 47.8327L255.095 44.0873ZM250.573 40.4082C249.649 38.606 249.113 36.0489 249.113 32.6H245.113C245.113 36.4044 245.696 39.6606 247.012 42.2318L250.573 40.4082ZM249.113 32.6C249.113 29.2062 249.649 26.7111 250.563 24.9697L247.022 23.1103C245.696 25.6356 245.113 28.8472 245.113 32.6H249.113ZM250.555 24.9856C251.475 23.2709 252.939 22.001 255.095 21.1927L253.69 17.4473C250.726 18.559 248.457 20.4358 247.03 23.0944L250.555 24.9856ZM255.129 21.1796C257.366 20.2938 260.449 19.8 264.473 19.8V15.8C260.176 15.8 256.539 16.3195 253.656 17.4604L255.129 21.1796ZM264.473 19.8C268.554 19.8 271.661 20.2948 273.896 21.1796L275.369 17.4604C272.484 16.3186 268.818 15.8 264.473 15.8V19.8ZM273.93 21.1927C276.081 21.9991 277.506 23.2596 278.372 24.9518L281.933 23.1282C280.559 20.447 278.304 18.5609 275.335 17.4473L273.93 21.1927ZM278.4 25.0038C279.353 26.7357 279.913 29.2171 279.913 32.6H283.913C283.913 28.8362 283.299 25.611 281.905 23.0762L278.4 25.0038ZM279.913 32.6C279.913 36.0382 279.352 38.5818 278.39 40.3744L281.915 42.2656C283.3 39.6848 283.913 36.4151 283.913 32.6H279.913ZM278.382 40.3903C277.521 42.0299 276.097 43.2749 273.93 44.0873L275.335 47.8327C278.288 46.7251 280.544 44.8767 281.923 42.2497L278.382 40.3903ZM273.93 44.0873C271.682 44.9303 268.562 45.4 264.473 45.4V49.4C268.81 49.4 272.463 48.9097 275.335 47.8327L273.93 44.0873ZM258.633 42.76H266.073V38.76H258.633V42.76ZM266.073 42.76C266.994 42.76 267.854 42.687 268.616 42.5056C269.366 42.3271 270.147 42.0136 270.778 41.4399L268.087 38.4801C268.132 38.4398 268.059 38.5263 267.689 38.6144C267.331 38.6997 266.805 38.76 266.073 38.76V42.76ZM270.784 41.4343C272.029 40.2934 272.393 38.6205 272.393 37H268.393C268.393 38.1528 268.116 38.4532 268.081 38.4857L270.784 41.4343ZM272.393 37V24.52H268.393V37H272.393ZM270.393 22.52H262.873V26.52H270.393V22.52ZM262.873 22.52C261.177 22.52 259.44 22.7772 258.232 23.7836L260.793 26.8564C260.865 26.7962 261.368 26.52 262.873 26.52V22.52ZM258.167 23.8401C256.929 24.9659 256.633 26.7008 256.633 28.28H260.633C260.633 27.6824 260.695 27.281 260.77 27.0299C260.843 26.7842 260.904 26.7581 260.858 26.7999L258.167 23.8401ZM256.633 28.28V40.76H260.633V28.28H256.633ZM280.393 61.4C280.393 63.7182 279.874 65.4134 279.001 66.6425L282.264 68.9575C283.738 66.8799 284.393 64.3084 284.393 61.4H280.393ZM279.001 66.6425C278.153 67.8374 276.745 68.8268 274.542 69.4832L275.683 73.3168C278.493 72.4799 280.765 71.0693 282.264 68.9575L279.001 66.6425ZM274.492 69.4985C272.322 70.2064 269.278 70.6 265.273 70.6V74.6C269.481 74.6 272.997 74.1936 275.733 73.3015L274.492 69.4985ZM265.273 70.6C262.283 70.6 259.349 70.3681 256.47 69.9053L255.835 73.8547C258.929 74.3519 262.075 74.6 265.273 74.6V70.6ZM256.435 69.9001C253.542 69.4868 250.875 68.8953 248.429 68.131L247.236 71.949C249.91 72.7847 252.79 73.4199 255.87 73.8599L256.435 69.9001ZM249.801 70.3929L251.321 61.9129L247.384 61.2071L245.864 69.6871L249.801 70.3929ZM248.83 63.4905C251.448 64.1996 253.871 64.7242 256.096 65.0579L256.689 61.1021C254.647 60.7958 252.377 60.3071 249.875 59.6295L248.83 63.4905ZM256.103 65.0589C258.384 65.3928 260.668 65.56 262.953 65.56V61.56C260.864 61.56 258.774 61.4072 256.682 61.1011L256.103 65.0589ZM262.953 65.56C264.75 65.56 266.352 65.5056 267.752 65.3936L267.433 61.4064C266.166 61.5077 264.675 61.56 262.953 61.56V65.56ZM267.746 65.3941C269.211 65.2814 270.651 65.084 272.065 64.8012L271.28 60.8788C270.028 61.1294 268.747 61.3053 267.439 61.4059L267.746 65.3941ZM273.673 62.84V58.44H269.673V62.84H273.673ZM271.815 56.4451C266.595 56.0723 263.004 55.6268 260.936 55.1344L260.009 59.0256C262.421 59.5999 266.296 60.0611 271.53 60.4349L271.815 56.4451ZM260.991 55.1483C259.99 54.8799 259.433 54.6149 259.167 54.4272C258.925 54.2558 259.193 54.3565 259.193 54.76H255.193C255.193 56.1235 256.007 57.0909 256.858 57.6928C257.685 58.2784 258.768 58.6934 259.954 59.0117L260.991 55.1483ZM259.112 55.3207L261.752 46.2807L257.913 45.1593L255.273 54.1993L259.112 55.3207ZM259.812 47.7199L267.492 47.7999L267.533 43.8001L259.853 43.7201L259.812 47.7199ZM265.518 45.6533L265.118 51.0933L269.107 51.3867L269.507 45.9467L265.518 45.6533ZM266.839 53.2212C269.897 53.643 272.357 54.0854 274.24 54.5433L275.185 50.6567C273.121 50.1546 270.515 49.6903 267.386 49.2588L266.839 53.2212ZM274.252 54.5462C276.162 54.9987 277.433 55.5376 278.206 56.0785L280.499 52.8015C279.139 51.8491 277.316 51.1613 275.173 50.6538L274.252 54.5462ZM278.243 56.1041C279.062 56.6497 279.543 57.2677 279.804 57.952L283.541 56.528C282.949 54.9723 281.883 53.7236 280.462 52.7759L278.243 56.1041ZM279.834 58.0278C280.177 58.827 280.393 59.9266 280.393 61.4H284.393C284.393 59.5668 284.128 57.893 283.511 56.4522L279.834 58.0278ZM280.058 26.6606L273.658 18.3406L270.487 20.7794L276.887 29.0994L280.058 26.6606ZM273.294 21.1433L280.654 15.4633L278.211 12.2967L270.851 17.9767L273.294 21.1433ZM278.038 15.314L283.798 20.914L286.587 18.046L280.827 12.446L278.038 15.314ZM283.631 18.2306L276.911 26.6306L280.034 29.1294L286.754 20.7294L283.631 18.2306ZM292.1 59H290.1V61H292.1V59ZM292.1 6.68L291.95 4.68565L290.1 4.82501V6.68H292.1ZM303.78 5.8H305.78V3.64365L303.63 3.80565L303.78 5.8ZM303.78 21.08H301.78V24.6885L304.84 22.776L303.78 21.08ZM309.46 18.76L309.01 16.8112L309.01 16.8112L309.46 18.76ZM325.06 20.12L323.931 21.7706L323.946 21.7809L323.961 21.7908L325.06 20.12ZM328.1 59V61H330.1V59H328.1ZM316.18 59H314.18V61H316.18V59ZM316.18 27.8H318.18V25.8H316.18V27.8ZM305.3 28.68L306.36 30.376L306.373 30.3677L306.387 30.3591L305.3 28.68ZM304.02 59V61H306.02V59H304.02ZM294.1 59V6.68H290.1V59H294.1ZM292.25 8.67434L303.93 7.79435L303.63 3.80565L291.95 4.68565L292.25 8.67434ZM301.78 5.8V21.08H305.78V5.8H301.78ZM304.84 22.776C306.348 21.8338 308.033 21.142 309.91 20.7088L309.01 16.8112C306.727 17.338 304.626 18.1929 302.72 19.384L304.84 22.776ZM309.91 20.7088C311.816 20.2688 313.982 20.04 316.42 20.04V16.04C313.738 16.04 311.264 16.2912 309.01 16.8112L309.91 20.7088ZM316.42 20.04C319.947 20.04 322.368 20.7017 323.931 21.7706L326.189 18.4694C323.698 16.765 320.36 16.04 316.42 16.04V20.04ZM323.961 21.7908C325.389 22.7304 326.1 24.0285 326.1 25.96H330.1C330.1 22.7715 328.784 20.1762 326.159 18.4492L323.961 21.7908ZM326.1 25.96V59H330.1V25.96H326.1ZM328.1 57H316.18V61H328.1V57ZM318.18 59V27.8H314.18V59H318.18ZM316.18 25.8H310.26V29.8H316.18V25.8ZM310.26 25.8C308.988 25.8 307.85 25.877 306.871 26.0508C305.912 26.2209 304.98 26.5049 304.213 27.0009L306.387 30.3591C306.527 30.2684 306.875 30.1124 307.569 29.9892C308.243 29.8697 309.132 29.8 310.26 29.8V25.8ZM304.24 26.984C302.532 28.0512 302.02 29.9565 302.02 31.8H306.02C306.02 31.1956 306.105 30.826 306.19 30.6191C306.264 30.439 306.329 30.3951 306.36 30.376L304.24 26.984ZM302.02 31.8V59H306.02V31.8H302.02ZM304.02 57H292.1V61H304.02V57ZM368.864 59V61H370.864V59H368.864ZM356.944 59H354.944V61H356.944V59ZM356.944 9V7H354.944V9H356.944ZM368.864 9H370.864V7H368.864V9ZM385.424 9V7H383.424V9H385.424ZM397.264 9H399.264V7H397.264V9ZM397.264 59V61H399.264V59H397.264ZM385.424 59H383.424V61H385.424V59ZM386.704 38.6V40.6H388.704V38.6H386.704ZM367.584 38.6H365.584V40.6H367.584V38.6ZM367.584 29.64V27.64H365.584V29.64H367.584ZM386.704 29.64H388.704V27.64H386.704V29.64ZM368.864 57H356.944V61H368.864V57ZM358.944 59V9H354.944V59H358.944ZM356.944 11H368.864V7H356.944V11ZM366.864 9V59H370.864V9H366.864ZM385.424 11H397.264V7H385.424V11ZM395.264 9V59H399.264V9H395.264ZM397.264 57H385.424V61H397.264V57ZM387.424 59V9H383.424V59H387.424ZM386.704 36.6H367.584V40.6H386.704V36.6ZM369.584 38.6V29.64H365.584V38.6H369.584ZM367.584 31.64H386.704V27.64H367.584V31.64ZM384.704 29.64V38.6H388.704V29.64H384.704ZM409.226 57L407.831 58.4325L407.84 58.4418L407.85 58.4509L409.226 57ZM407.066 40.84L405.213 40.0872L405.207 40.1026L405.201 40.118L407.066 40.84ZM410.506 36.84L411.535 38.555L411.535 38.555L410.506 36.84ZM417.226 34.84L416.974 32.856L416.969 32.8566L417.226 34.84ZM432.506 34.28H434.506V32.28H432.506V34.28ZM432.506 40.84V42.84H434.506V40.84H432.506ZM418.346 41.72L419.406 43.416L419.443 43.3928L419.479 43.3681L418.346 41.72ZM417.066 51.56H415.066V53.56H417.066V51.56ZM428.826 50.76L427.766 49.064L427.741 49.0796L427.717 49.0959L428.826 50.76ZM430.106 27.56H432.106V26.0829L430.694 25.6484L430.106 27.56ZM416.986 27.4L416.728 25.4168L416.722 25.4175L416.986 27.4ZM409.386 28.92L407.416 29.2611L407.786 31.4025L409.89 30.8556L409.386 28.92ZM407.946 20.6L407.277 18.7151L405.688 19.2792L405.976 20.9411L407.946 20.6ZM413.306 19.16L412.934 17.1948L412.925 17.1968L413.306 19.16ZM419.386 18.36L419.54 20.3541L419.565 20.3522L419.59 20.3496L419.386 18.36ZM435.066 19.32L434.396 21.2044L434.421 21.2133L434.446 21.2215L435.066 19.32ZM440.346 23.32L438.61 24.3123L438.627 24.3419L438.645 24.371L440.346 23.32ZM442.026 59V61H444.026V59H442.026ZM436.266 59L434.674 60.2102L435.274 61H436.266V59ZM433.226 55L434.819 53.7898L433.549 52.12L431.942 53.467L433.226 55ZM426.746 58.76L427.405 60.6484L427.417 60.6441L427.43 60.6396L426.746 58.76ZM419.226 57.96C414.858 57.96 412.142 57.0096 410.603 55.5491L407.85 58.4509C410.47 60.937 414.421 61.96 419.226 61.96V57.96ZM410.622 55.5675C409.094 54.0791 408.106 51.4677 408.106 47.24H404.106C404.106 51.9723 405.198 55.8675 407.831 58.4325L410.622 55.5675ZM408.106 47.24C408.106 44.7673 408.412 42.9032 408.931 41.562L405.201 40.118C404.44 42.0834 404.106 44.4861 404.106 47.24H408.106ZM408.919 41.5928C409.447 40.2932 410.302 39.2951 411.535 38.555L409.477 35.125C407.511 36.3049 406.072 37.9735 405.213 40.0872L408.919 41.5928ZM411.535 38.555C412.805 37.7933 414.74 37.179 417.483 36.8234L416.969 32.8566C413.952 33.2477 411.408 33.9667 409.477 35.125L411.535 38.555ZM417.479 36.824C420.297 36.4653 423.912 36.28 428.346 36.28V32.28C423.82 32.28 420.022 32.4681 416.974 32.856L417.479 36.824ZM428.346 36.28H432.506V32.28H428.346V36.28ZM430.506 34.28V40.84H434.506V34.28H430.506ZM432.506 38.84H423.066V42.84H432.506V38.84ZM423.066 38.84C421.845 38.84 420.747 38.9173 419.8 39.0939C418.873 39.2667 417.961 39.5575 417.213 40.0719L419.479 43.3681C419.584 43.2958 419.886 43.1466 420.533 43.0261C421.159 42.9093 421.995 42.84 423.066 42.84V38.84ZM417.286 40.024C415.579 41.0912 415.066 42.9965 415.066 44.84H419.066C419.066 44.2356 419.152 43.866 419.237 43.6591C419.31 43.479 419.376 43.4351 419.406 43.416L417.286 40.024ZM415.066 44.84V51.56H419.066V44.84H415.066ZM417.066 53.56H424.186V49.56H417.066V53.56ZM424.186 53.56C425.4 53.56 426.482 53.4902 427.406 53.3309C428.302 53.1765 429.202 52.9132 429.936 52.4241L427.717 49.0959C427.651 49.1401 427.377 49.2768 426.726 49.3891C426.104 49.4965 425.266 49.56 424.186 49.56V53.56ZM429.886 52.456C431.575 51.4005 432.106 49.5438 432.106 47.72H428.106C428.106 48.8829 427.784 49.0528 427.766 49.064L429.886 52.456ZM432.106 47.72V27.56H428.106V47.72H432.106ZM430.694 25.6484C429.02 25.1332 426.755 24.92 424.026 24.92V28.92C426.631 28.92 428.419 29.1335 429.518 29.4716L430.694 25.6484ZM424.026 24.92C421.691 24.92 419.258 25.0868 416.728 25.4168L417.245 29.3832C419.621 29.0732 421.881 28.92 424.026 28.92V24.92ZM416.722 25.4175C414.231 25.7496 411.618 26.2733 408.883 26.9844L409.89 30.8556C412.488 30.18 414.941 29.6904 417.251 29.3825L416.722 25.4175ZM411.357 28.5789L409.917 20.2589L405.976 20.9411L407.416 29.2611L411.357 28.5789ZM408.615 22.4849C410.165 21.9349 411.855 21.4797 413.688 21.1232L412.925 17.1968C410.918 17.5869 409.034 18.0917 407.277 18.7151L408.615 22.4849ZM413.678 21.1251C415.576 20.766 417.53 20.5087 419.54 20.3541L419.233 16.3659C417.082 16.5313 414.983 16.8073 412.934 17.1949L413.678 21.1251ZM419.59 20.3496C421.605 20.143 423.59 20.04 425.546 20.04V16.04C423.449 16.04 421.328 16.1504 419.182 16.3704L419.59 20.3496ZM425.546 20.04C429.376 20.04 432.296 20.4576 434.396 21.2044L435.736 17.4356C433.037 16.4757 429.61 16.04 425.546 16.04V20.04ZM434.446 21.2215C436.527 21.9 437.837 22.9599 438.61 24.3123L442.083 22.3277C440.722 19.9468 438.512 18.34 435.686 17.4185L434.446 21.2215ZM438.645 24.371C439.503 25.7613 440.026 27.781 440.026 30.6H444.026C444.026 27.339 443.429 24.5054 442.048 22.269L438.645 24.371ZM440.026 30.6V59H444.026V30.6H440.026ZM442.026 57H436.266V61H442.026V57ZM437.859 57.7898L434.819 53.7898L431.634 56.2102L434.674 60.2102L437.859 57.7898ZM431.942 53.467C430.141 54.9754 428.184 56.1092 426.063 56.8804L427.43 60.6396C430.002 59.7042 432.364 58.3313 434.511 56.533L431.942 53.467ZM426.088 56.8716C424.03 57.5894 421.749 57.96 419.226 57.96V61.96C422.144 61.96 424.876 61.5306 427.405 60.6484L426.088 56.8716ZM459.521 58.92L458.874 60.8123L458.881 60.8149L458.889 60.8174L459.521 58.92ZM454.561 55.4L456.143 54.1757L456.143 54.1757L454.561 55.4ZM451.761 48.92L449.808 49.3497L449.808 49.3497L451.761 48.92ZM451.761 29.08L453.715 29.5097L453.716 29.5017L451.761 29.08ZM454.561 22.6L456.123 23.8494L456.133 23.8369L456.143 23.8243L454.561 22.6ZM459.521 19.08L458.889 17.1826L458.881 17.1851L458.874 17.1877L459.521 19.08ZM471.921 18.28L471.729 20.2707L471.763 20.274L471.796 20.2761L471.921 18.28ZM476.721 18.76L476.438 20.7399L476.448 20.7412L476.721 18.76ZM480.481 19.56L482.464 19.8219L482.68 18.1848L481.114 17.6626L480.481 19.56ZM479.361 28.04L478.892 29.9842L481.053 30.5058L481.344 28.3019L479.361 28.04ZM474.641 27.24L474.368 29.2212L474.405 29.2264L474.442 29.2301L474.641 27.24ZM464.961 28.36L466.375 29.7742L466.396 29.754L466.415 29.7332L464.961 28.36ZM463.601 50.44H461.601V51.9171L463.013 52.3516L463.601 50.44ZM474.881 50.6L475.261 52.5636L475.261 52.5636L474.881 50.6ZM480.241 49.08L482.223 48.8132L481.893 46.3572L479.562 47.1989L480.241 49.08ZM481.361 57.4L482.137 59.2433L483.547 58.6495L483.343 57.1332L481.361 57.4ZM474.641 59.32L474.299 57.3496L474.291 57.3509L474.641 59.32ZM467.201 57.96C464.299 57.96 461.968 57.6274 460.154 57.0226L458.889 60.8174C461.235 61.5993 464.023 61.96 467.201 61.96V57.96ZM460.169 57.0277C458.502 56.4576 457.177 55.5119 456.143 54.1757L452.98 56.6243C454.505 58.5948 456.487 59.9957 458.874 60.8123L460.169 57.0277ZM456.143 54.1757C455.09 52.8166 454.256 50.9527 453.715 48.4903L449.808 49.3497C450.44 52.2207 451.472 54.6768 452.98 56.6243L456.143 54.1757ZM453.715 48.4903C453.169 46.0119 452.881 42.8601 452.881 39H448.881C448.881 43.0332 449.18 46.4948 449.808 49.3497L453.715 48.4903ZM452.881 39C452.881 35.1399 453.169 31.9881 453.715 29.5097L449.808 28.6503C449.18 31.5052 448.881 34.9668 448.881 39H452.881ZM453.716 29.5017C454.26 26.9814 455.093 25.137 456.123 23.8494L453 21.3506C451.47 23.263 450.436 25.7386 449.806 28.6583L453.716 29.5017ZM456.143 23.8243C457.177 22.4881 458.502 21.5424 460.169 20.9723L458.874 17.1877C456.487 18.0043 454.505 19.4052 452.98 21.3757L456.143 23.8243ZM460.154 20.9774C461.968 20.3726 464.299 20.04 467.201 20.04V16.04C464.023 16.04 461.235 16.4007 458.889 17.1826L460.154 20.9774ZM467.201 20.04C468.624 20.04 470.132 20.1162 471.729 20.2707L472.114 16.2893C470.404 16.1238 468.766 16.04 467.201 16.04V20.04ZM471.796 20.2761C473.457 20.3799 475.004 20.535 476.438 20.7399L477.004 16.7801C475.452 16.5584 473.799 16.3934 472.046 16.2839L471.796 20.2761ZM476.448 20.7412C477.931 20.9457 479.051 21.1913 479.849 21.4574L481.114 17.6626C479.992 17.2887 478.605 17.0009 476.995 16.7788L476.448 20.7412ZM478.498 19.2981L477.378 27.7781L481.344 28.3019L482.464 19.8219L478.498 19.2981ZM479.831 26.0958C478.194 25.7008 476.53 25.4189 474.84 25.2499L474.442 29.2301C475.952 29.3811 477.435 29.6325 478.892 29.9842L479.831 26.0958ZM474.915 25.2588C473.269 25.0318 471.551 24.92 469.761 24.92V28.92C471.385 28.92 472.92 29.0215 474.368 29.2212L474.915 25.2588ZM469.761 24.92C467.297 24.92 464.991 25.416 463.507 26.9868L466.415 29.7332C466.745 29.384 467.639 28.92 469.761 28.92V24.92ZM463.547 26.9458C462.055 28.4377 461.601 30.7619 461.601 33.24H465.601C465.601 31.0248 466.054 30.0956 466.375 29.7742L463.547 26.9458ZM461.601 33.24V50.44H465.601V33.24H461.601ZM463.013 52.3516C464.69 52.8676 466.984 53.08 469.761 53.08V49.08C467.099 49.08 465.286 48.8657 464.189 48.5284L463.013 52.3516ZM469.761 53.08C471.643 53.08 473.477 52.9089 475.261 52.5636L474.501 48.6364C472.979 48.9311 471.399 49.08 469.761 49.08V53.08ZM475.261 52.5636C477.035 52.2203 478.923 51.6825 480.921 50.9611L479.562 47.1989C477.72 47.8641 476.034 48.3397 474.501 48.6364L475.261 52.5636ZM478.259 49.3468L479.379 57.6668L483.343 57.1332L482.223 48.8132L478.259 49.3468ZM480.585 55.5567C478.715 56.3443 476.622 56.9454 474.299 57.3496L474.984 61.2904C477.567 60.8412 479.955 60.1623 482.137 59.2433L480.585 55.5567ZM474.291 57.3509C472.012 57.756 469.65 57.96 467.201 57.96V61.96C469.873 61.96 472.47 61.7373 474.991 61.2891L474.291 57.3509ZM505.455 41.4L507.288 40.6001L506.764 39.4H505.455V41.4ZM500.895 41.4V39.4H498.895V41.4H500.895ZM500.895 59V61H502.895V59H500.895ZM488.975 59H486.975V61H488.975V59ZM488.975 7L488.775 5.01006L486.975 5.19123V7H488.975ZM500.895 5.8H502.895V3.58855L500.695 3.81006L500.895 5.8ZM500.895 33.88H498.895V35.88H500.895V33.88ZM505.375 33.88V35.88H506.629L507.175 34.7511L505.375 33.88ZM512.575 19V17H511.321L510.775 18.1289L512.575 19ZM525.135 19L526.91 19.9215L528.427 17H525.135V19ZM515.375 37.8L513.6 36.8785L513.14 37.7643L513.571 38.6644L515.375 37.8ZM525.535 59V61H528.711L527.339 58.1356L525.535 59ZM513.135 59L511.302 59.7999L511.826 61H513.135V59ZM505.455 39.4H500.895V43.4H505.455V39.4ZM498.895 41.4V59H502.895V41.4H498.895ZM500.895 57H488.975V61H500.895V57ZM490.975 59V7H486.975V59H490.975ZM489.175 8.98994L501.095 7.78994L500.695 3.81006L488.775 5.01006L489.175 8.98994ZM498.895 5.8V33.88H502.895V5.8H498.895ZM500.895 35.88H505.375V31.88H500.895V35.88ZM507.175 34.7511L514.375 19.8711L510.775 18.1289L503.575 33.0089L507.175 34.7511ZM512.575 21H525.135V17H512.575V21ZM523.36 18.0785L513.6 36.8785L517.15 38.7215L526.91 19.9215L523.36 18.0785ZM513.571 38.6644L523.731 59.8644L527.339 58.1356L517.179 36.9356L513.571 38.6644ZM525.535 57H513.135V61H525.535V57ZM514.968 58.2001L507.288 40.6001L503.622 42.1999L511.302 59.7999L514.968 58.2001ZM533.629 20.92L534.84 22.5123L534.85 22.5047L534.859 22.497L533.629 20.92ZM553.949 18.28L553.696 20.2639L553.719 20.2668L553.742 20.2692L553.949 18.28ZM561.309 19.56L563.281 19.8979L563.594 18.0696L561.794 17.6197L561.309 19.56ZM559.869 27.96L559.33 29.8859L561.466 30.4839L561.841 28.2979L559.869 27.96ZM555.389 27.08L555.645 25.0964L555.645 25.0964L555.389 27.08ZM545.949 27L546.103 28.9941L546.137 28.9915L546.17 28.9878L545.949 27ZM542.349 27.56L541.84 25.6259L540.349 26.0182V27.56H542.349ZM542.349 33.8H540.349V35.5825L542.12 35.7868L542.349 33.8ZM552.669 35.56L552.175 37.498L552.193 37.5026L552.211 37.5068L552.669 35.56ZM559.069 38.04L560.165 36.3671L560.165 36.3671L559.069 38.04ZM562.349 41.8L560.511 42.5878L560.516 42.6001L560.522 42.6123L562.349 41.8ZM561.469 54.68L563.155 55.7568L563.161 55.7464L563.168 55.7359L561.469 54.68ZM555.549 58.92L556.148 60.8283L556.165 60.823L556.182 60.8174L555.549 58.92ZM536.669 59.56L536.359 61.5358L536.365 61.5367L536.669 59.56ZM528.909 57.72L526.944 57.3514L526.62 59.0771L528.289 59.6215L528.909 57.72ZM530.589 48.76L531.362 46.9153L529.08 45.9592L528.624 48.3914L530.589 48.76ZM546.829 51.08L547.028 53.0701L547.07 53.0659L547.112 53.0599L546.829 51.08ZM550.669 50.36L551.103 52.3124L552.669 51.9643V50.36H550.669ZM550.669 43.96H552.669V42.1865L550.909 41.9744L550.669 43.96ZM539.869 42.28L539.411 44.2268L539.433 44.232L539.455 44.2367L539.869 42.28ZM533.549 39.88L532.426 41.535L532.447 41.5489L532.468 41.5624L533.549 39.88ZM530.429 36.12L528.546 36.7927L528.556 36.8222L528.568 36.8513L530.429 36.12ZM531.629 30.52C531.629 26.5634 532.816 24.0504 534.84 22.5123L532.419 19.3277C529.11 21.8429 527.629 25.7299 527.629 30.52H531.629ZM534.859 22.497C537.007 20.8218 540.628 19.8 546.109 19.8V15.8C540.284 15.8 535.585 16.8582 532.399 19.343L534.859 22.497ZM546.109 19.8C548.751 19.8 551.28 19.9554 553.696 20.2639L554.203 16.2961C551.606 15.9646 548.908 15.8 546.109 15.8V19.8ZM553.742 20.2692C556.214 20.5268 558.575 20.9379 560.824 21.5003L561.794 17.6197C559.351 17.0088 556.804 16.5666 554.157 16.2908L553.742 20.2692ZM559.338 19.2221L557.898 27.6221L561.841 28.2979L563.281 19.8979L559.338 19.2221ZM560.409 26.0341C558.966 25.6301 557.376 25.3197 555.645 25.0964L555.133 29.0636C556.71 29.2669 558.106 29.5432 559.33 29.8859L560.409 26.0341ZM555.645 25.0964C553.903 24.8716 552.11 24.76 550.269 24.76V28.76C551.949 28.76 553.57 28.8618 555.133 29.0636L555.645 25.0964ZM550.269 24.76C548.755 24.76 547.241 24.8441 545.729 25.0122L546.17 28.9878C547.537 28.8359 548.904 28.76 550.269 28.76V24.76ZM545.796 25.0059C544.326 25.119 543.001 25.3205 541.84 25.6259L542.858 29.4941C543.725 29.2662 544.8 29.0943 546.103 28.9941L545.796 25.0059ZM540.349 27.56V33.8H544.349V27.56H540.349ZM542.12 35.7868C546.23 36.261 549.574 36.8348 552.175 37.498L553.163 33.622C550.325 32.8985 546.789 32.299 542.579 31.8132L542.12 35.7868ZM552.211 37.5068C554.808 38.1179 556.695 38.8752 557.973 39.7129L560.165 36.3671C558.351 35.1782 555.97 34.2821 553.127 33.6132L552.211 37.5068ZM557.973 39.7129C559.238 40.5413 560.047 41.5044 560.511 42.5878L564.188 41.0122C563.372 39.109 561.994 37.5653 560.165 36.3671L557.973 39.7129ZM560.522 42.6123C561.015 43.7231 561.309 45.2131 561.309 47.16H565.309C565.309 44.8403 564.963 42.7569 564.177 40.9877L560.522 42.6123ZM561.309 47.16C561.309 49.9396 560.748 52.0515 559.771 53.6241L563.168 55.7359C564.644 53.3618 565.309 50.4604 565.309 47.16H561.309ZM559.784 53.6032C558.862 55.0462 557.317 56.2226 554.917 57.0226L556.182 60.8174C559.222 59.8041 561.623 58.1538 563.155 55.7568L559.784 53.6032ZM554.951 57.0117C552.499 57.7809 549.176 58.2 544.909 58.2V62.2C549.39 62.2 553.16 61.7657 556.148 60.8283L554.951 57.0117ZM544.909 58.2C542.294 58.2 539.649 57.9949 536.973 57.5833L536.365 61.5367C539.236 61.9784 542.084 62.2 544.909 62.2V58.2ZM536.979 57.5842C534.358 57.1729 531.875 56.5834 529.529 55.8185L528.289 59.6215C530.85 60.4566 533.541 61.0938 536.359 61.5358L536.979 57.5842ZM530.875 58.0886L532.555 49.1286L528.624 48.3914L526.944 57.3514L530.875 58.0886ZM529.817 50.6047C534.031 52.3701 538.617 53.24 543.549 53.24V49.24C539.096 49.24 535.041 48.4566 531.362 46.9153L529.817 50.6047ZM543.549 53.24C544.733 53.24 545.893 53.1836 547.028 53.0701L546.63 49.0899C545.633 49.1897 544.606 49.24 543.549 49.24V53.24ZM547.112 53.0599C548.295 52.8909 549.627 52.6404 551.103 52.3124L550.236 48.4076C548.831 48.7196 547.603 48.9491 546.547 49.1001L547.112 53.0599ZM552.669 50.36V43.96H548.669V50.36H552.669ZM550.909 41.9744C546.512 41.4446 542.976 40.8929 540.283 40.3233L539.455 44.2367C542.309 44.8404 545.974 45.4087 550.43 45.9456L550.909 41.9744ZM540.327 40.3332C537.717 39.7189 535.856 38.9849 534.631 38.1976L532.468 41.5624C534.23 42.6951 536.582 43.5611 539.411 44.2268L540.327 40.3332ZM534.672 38.225C533.469 37.4088 532.712 36.4609 532.291 35.3887L528.568 36.8513C529.32 38.7658 530.643 40.3245 532.426 41.535L534.672 38.225ZM532.313 35.4473C531.881 34.2389 531.629 32.6177 531.629 30.52H527.629C527.629 32.9023 527.911 35.0144 528.546 36.7927L532.313 35.4473Z" fill="white"/>
</g>
<defs>
<filter id="filter0_b_9_24" x="-18.1" y="-18.48" width="600.409" height="110.08" filterUnits="userSpaceOnUse" color-interpolation-filters="sRGB">
<feFlood flood-opacity="0" result="BackgroundImageFix"/>
<feGaussianBlur in="BackgroundImage" stdDeviation="9.5"/>
<feComposite in2="SourceAlpha" operator="in" result="effect1_backgroundBlur_9_24"/>
<feBlend mode="normal" in="SourceGraphic" in2="effect1_backgroundBlur_9_24" result="shape"/>
</filter>
</defs>
</svg>
